<mxfile host="app.diagrams.net" modified="2022-11-13T16:10:29.590Z" agent="5.0 (Windows NT 10.0; Win64; x64) AppleWebKit/537.36 (KHTML, like Gecko) Chrome/107.0.0.0 Safari/537.36" etag="PGgk1k7Srh4Po-4COWRw" version="20.5.3" type="github">
  <diagram id="PVRfZxUoOlDj7m3QWK1w" name="Page-1">
    <mxGraphModel dx="1038" dy="539" grid="1" gridSize="10" guides="1" tooltips="1" connect="1" arrows="1" fold="1" page="1" pageScale="1" pageWidth="827" pageHeight="1169" math="0" shadow="0">
      <root>
        <mxCell id="0" />
        <mxCell id="1" parent="0" />
        <mxCell id="JBmN9u2r5-fxhoOwxQbI-17" value="" style="rounded=1;whiteSpace=wrap;html=1;" vertex="1" parent="1">
          <mxGeometry x="330" y="85" width="350" height="315" as="geometry" />
        </mxCell>
        <mxCell id="JBmN9u2r5-fxhoOwxQbI-13" style="edgeStyle=orthogonalEdgeStyle;rounded=0;orthogonalLoop=1;jettySize=auto;html=1;" edge="1" parent="1" source="JBmN9u2r5-fxhoOwxQbI-2" target="JBmN9u2r5-fxhoOwxQbI-6">
          <mxGeometry relative="1" as="geometry" />
        </mxCell>
        <mxCell id="JBmN9u2r5-fxhoOwxQbI-2" value="Container 1" style="rounded=0;whiteSpace=wrap;html=1;fillColor=#dae8fc;strokeColor=#6c8ebf;" vertex="1" parent="1">
          <mxGeometry x="530" y="100" width="120" height="60" as="geometry" />
        </mxCell>
        <mxCell id="JBmN9u2r5-fxhoOwxQbI-14" style="edgeStyle=orthogonalEdgeStyle;rounded=0;orthogonalLoop=1;jettySize=auto;html=1;" edge="1" parent="1" source="JBmN9u2r5-fxhoOwxQbI-3" target="JBmN9u2r5-fxhoOwxQbI-6">
          <mxGeometry relative="1" as="geometry" />
        </mxCell>
        <mxCell id="JBmN9u2r5-fxhoOwxQbI-3" value="Container 2" style="rounded=0;whiteSpace=wrap;html=1;fillColor=#dae8fc;strokeColor=#6c8ebf;" vertex="1" parent="1">
          <mxGeometry x="530" y="170" width="120" height="60" as="geometry" />
        </mxCell>
        <mxCell id="JBmN9u2r5-fxhoOwxQbI-15" style="edgeStyle=orthogonalEdgeStyle;rounded=0;orthogonalLoop=1;jettySize=auto;html=1;" edge="1" parent="1" source="JBmN9u2r5-fxhoOwxQbI-4" target="JBmN9u2r5-fxhoOwxQbI-6">
          <mxGeometry relative="1" as="geometry" />
        </mxCell>
        <mxCell id="JBmN9u2r5-fxhoOwxQbI-4" value="Container 3" style="rounded=0;whiteSpace=wrap;html=1;fillColor=#dae8fc;strokeColor=#6c8ebf;" vertex="1" parent="1">
          <mxGeometry x="530" y="240" width="120" height="60" as="geometry" />
        </mxCell>
        <mxCell id="JBmN9u2r5-fxhoOwxQbI-16" style="edgeStyle=orthogonalEdgeStyle;rounded=0;orthogonalLoop=1;jettySize=auto;html=1;" edge="1" parent="1" source="JBmN9u2r5-fxhoOwxQbI-5" target="JBmN9u2r5-fxhoOwxQbI-6">
          <mxGeometry relative="1" as="geometry" />
        </mxCell>
        <mxCell id="JBmN9u2r5-fxhoOwxQbI-5" value="Container 4" style="rounded=0;whiteSpace=wrap;html=1;fillColor=#dae8fc;strokeColor=#6c8ebf;" vertex="1" parent="1">
          <mxGeometry x="530" y="310" width="120" height="60" as="geometry" />
        </mxCell>
        <mxCell id="JBmN9u2r5-fxhoOwxQbI-7" style="edgeStyle=orthogonalEdgeStyle;rounded=0;orthogonalLoop=1;jettySize=auto;html=1;entryX=0;entryY=0.75;entryDx=0;entryDy=0;" edge="1" parent="1" source="JBmN9u2r5-fxhoOwxQbI-6" target="JBmN9u2r5-fxhoOwxQbI-2">
          <mxGeometry relative="1" as="geometry" />
        </mxCell>
        <mxCell id="JBmN9u2r5-fxhoOwxQbI-9" style="edgeStyle=orthogonalEdgeStyle;rounded=0;orthogonalLoop=1;jettySize=auto;html=1;" edge="1" parent="1" source="JBmN9u2r5-fxhoOwxQbI-6" target="JBmN9u2r5-fxhoOwxQbI-3">
          <mxGeometry relative="1" as="geometry" />
        </mxCell>
        <mxCell id="JBmN9u2r5-fxhoOwxQbI-11" style="edgeStyle=orthogonalEdgeStyle;rounded=0;orthogonalLoop=1;jettySize=auto;html=1;entryX=0;entryY=0.5;entryDx=0;entryDy=0;" edge="1" parent="1" source="JBmN9u2r5-fxhoOwxQbI-6" target="JBmN9u2r5-fxhoOwxQbI-4">
          <mxGeometry relative="1" as="geometry" />
        </mxCell>
        <mxCell id="JBmN9u2r5-fxhoOwxQbI-12" style="edgeStyle=orthogonalEdgeStyle;rounded=0;orthogonalLoop=1;jettySize=auto;html=1;entryX=0;entryY=0.5;entryDx=0;entryDy=0;" edge="1" parent="1" source="JBmN9u2r5-fxhoOwxQbI-6" target="JBmN9u2r5-fxhoOwxQbI-5">
          <mxGeometry relative="1" as="geometry" />
        </mxCell>
        <mxCell id="JBmN9u2r5-fxhoOwxQbI-6" value="Service/Deployment" style="rounded=1;whiteSpace=wrap;html=1;direction=south;fillColor=#d5e8d4;strokeColor=#82b366;" vertex="1" parent="1">
          <mxGeometry x="360" y="100" width="130" height="270" as="geometry" />
        </mxCell>
        <mxCell id="JBmN9u2r5-fxhoOwxQbI-19" style="edgeStyle=orthogonalEdgeStyle;rounded=0;orthogonalLoop=1;jettySize=auto;html=1;" edge="1" parent="1" source="JBmN9u2r5-fxhoOwxQbI-18" target="JBmN9u2r5-fxhoOwxQbI-6">
          <mxGeometry relative="1" as="geometry" />
        </mxCell>
        <mxCell id="JBmN9u2r5-fxhoOwxQbI-18" value="Config Files for K8S" style="rounded=0;whiteSpace=wrap;html=1;fillColor=#f8cecc;strokeColor=#b85450;" vertex="1" parent="1">
          <mxGeometry x="170" y="200" width="120" height="70" as="geometry" />
        </mxCell>
        <mxCell id="JBmN9u2r5-fxhoOwxQbI-21" value="Node" style="text;html=1;strokeColor=none;fillColor=none;align=center;verticalAlign=middle;whiteSpace=wrap;rounded=0;" vertex="1" parent="1">
          <mxGeometry x="470" y="370" width="60" height="30" as="geometry" />
        </mxCell>
      </root>
    </mxGraphModel>
  </diagram>
</mxfile>
